<?xml version="1.0"?>
<svg width="512" height="512" xmlns="http://www.w3.org/2000/svg" xmlns:svg="http://www.w3.org/2000/svg" preserveAspectRatio="xMidYMid meet" version="1.0">
 <g class="layer">
  <title>Layer 1</title>
  <g fill="#000000" id="svg_1" transform="matrix(0.1 0 0 -0.1 0 0)">
   <path d="m2372,-11c-222,-24 -457,-104 -644,-220c-341,-211 -611,-549 -721,-904c-64,-206 -77,-342 -77,-822l0,-371l-102,-4c-86,-2 -112,-7 -160,-30c-68,-31 -133,-95 -168,-164l-25,-49l0,-1150l0,-1150l26,-50c35,-66 101,-130 169,-163l55,-27l1835,0l1835,0l55,27c68,33 134,97 169,163l26,50l0,1150l0,1150l-25,49c-35,69 -100,133 -168,164c-48,23 -74,28 -159,30l-103,4l0,371c0,480 -13,616 -77,822c-110,355 -380,693 -721,904c-291,181 -651,258 -1020,220zm363,-704c180,-32 357,-128 491,-266c117,-122 188,-246 237,-414c19,-64 21,-105 24,-502l4,-433l-931,0l-931,0l4,433c4,471 4,475 70,634c86,210 302,420 518,503c150,58 343,75 514,45z" fill="#ffffff" id="svg_2"/>
  </g>
 </g>
</svg>