<?xml version="1.0" encoding="utf-8"?>
<svg height="40px" viewBox="0 -960 960 960" width="40px" fill="#e8eaed" xmlns="http://www.w3.org/2000/svg">
  <defs/>
  <path d="M 480 -80 C 425.113 -80 373.337 -90.5 324.67 -111.5 C 276.003 -132.5 233.557 -161.11 197.33 -197.33 C 161.11 -233.557 132.5 -276.003 111.5 -324.67 C 90.5 -373.337 80 -425.113 80 -480 C 80 -535.333 90.5 -587.333 111.5 -636 C 132.5 -684.667 161.11 -727 197.33 -763 C 233.557 -799 276.003 -827.5 324.67 -848.5 C 373.337 -869.5 425.113 -880 480 -880 C 535.333 -880 587.333 -869.5 636 -848.5 C 684.667 -827.5 727 -799 763 -763 C 799 -727 827.5 -684.667 848.5 -636 C 869.5 -587.333 880 -535.333 880 -480 C 880 -425.113 869.5 -373.337 848.5 -324.67 C 827.5 -276.003 799 -233.557 763 -197.33 C 727 -161.11 684.667 -132.5 636 -111.5 C 587.333 -90.5 535.333 -80 480 -80 Z M 480 -146.67 C 447.601 -59.616 458.767 -367.187 523.434 -432.074 C 588.1 -496.96 511.93 -363.441 511.93 -455.888 C 511.93 -548.775 559.166 -420.188 494.499 -484.855 C 429.832 -549.522 594.588 -458.883 501.701 -458.883 C 409.254 -458.883 586.175 -532.643 521.288 -467.976 C 456.401 -403.309 515.584 -536.719 515.584 -443.832 C 515.584 -351.385 463.631 -525.887 528.522 -461.008 C 593.413 -396.129 679.878 -683.732 480 -146.67 Z M 480 -480 Z"/>
</svg>