<?xml version="1.0"?>
<svg width="512" height="512" xmlns="http://www.w3.org/2000/svg" xmlns:svg="http://www.w3.org/2000/svg" preserveAspectRatio="xMidYMid meet" version="1.0">
 <g class="layer">
  <title>Layer 1</title>
  <g fill="#000000" id="svg_1" transform="matrix(0.1 0 0 -0.1 0 0)">
   <path d="m2355,-556c-22,-2 -89,-9 -150,-14c-744,-73 -1475,-406 -2037,-931c-137,-128 -163,-170 -163,-264c1,-85 23,-134 89,-192c55,-48 117,-68 190,-60c74,7 102,24 214,130c607,573 1427,873 2239,818c722,-49 1360,-324 1876,-809c117,-110 152,-132 222,-139c74,-8 136,11 191,60c66,58 88,107 89,192c0,95 -25,135 -173,274c-534,502 -1192,814 -1923,911c-147,20 -559,35 -664,24z" fill="#ffffff" id="svg_2"/>
   <path d="m2425,-1581c-579,-34 -1119,-274 -1541,-685c-84,-82 -104,-117 -111,-196c-17,-177 159,-319 325,-264c37,13 75,39 134,93c386,352 822,523 1334,523c506,0 961,-176 1339,-518c38,-35 87,-73 108,-83c118,-61 258,-16 327,104c39,69 46,121 26,191c-14,46 -30,71 -89,133c-204,215 -528,427 -837,548c-196,76 -475,139 -668,150c-53,3 -124,7 -157,9c-33,2 -118,0 -190,-5z" fill="#ffffff" id="svg_3"/>
   <path d="m2498,-2611c-302,-20 -604,-158 -826,-377c-103,-102 -125,-141 -130,-238c-3,-57 0,-81 18,-123c44,-101 164,-172 263,-156c64,11 111,39 193,115c216,201 503,273 790,200c144,-37 270,-107 403,-225c93,-82 153,-103 240,-86c164,33 252,201 191,364c-17,44 -39,73 -118,149c-117,113 -199,173 -329,239c-216,110 -439,154 -695,138z" fill="#ffffff" id="svg_4"/>
   <path d="m2459,-3628c-165,-43 -300,-180 -344,-347c-79,-303 156,-605 469,-605c315,1 550,301 471,603c-23,89 -62,156 -131,224c-124,125 -292,170 -465,125z" fill="#ffffff" id="svg_5"/>
  </g>
 </g>
</svg>