<?xml version="1.0"?>
<svg width="512" height="512" xmlns="http://www.w3.org/2000/svg" xmlns:svg="http://www.w3.org/2000/svg" preserveAspectRatio="xMidYMid meet" version="1.0">
 <g class="layer">
  <title>Layer 1</title>
  <g fill="#000000" id="svg_1" transform="matrix(0.1 0 0 -0.1 0 0)">
   <path d="m134,-10c-68,-21 -134,-114 -134,-190c0,-81 8,-91 361,-445c186,-187 339,-344 339,-347c0,-4 -43,-36 -95,-73c-150,-104 -309,-239 -451,-380c-112,-112 -133,-137 -144,-178c-23,-86 6,-168 79,-221c38,-27 51,-31 109,-31c83,0 93,6 268,175c72,70 180,165 240,211c112,87 252,185 280,196c11,4 93,-71 290,-268l273,-273l-117,-61c-203,-105 -375,-226 -570,-403c-103,-95 -138,-157 -129,-234c11,-93 78,-162 168,-174c78,-11 119,8 221,103c213,197 436,343 668,437l64,26l318,-317c337,-336 332,-331 246,-332c-153,-3 -442,-110 -629,-234c-181,-119 -279,-230 -279,-316c0,-56 43,-134 93,-167c36,-24 52,-29 109,-29c73,0 76,1 215,116c144,119 334,204 516,230c156,23 366,-16 529,-97c43,-21 227,-199 948,-919c821,-819 899,-894 940,-905c158,-42 292,92 250,250c-11,42 -187,221 -2388,2423c-1307,1308 -2393,2389 -2413,2403c-41,28 -124,40 -175,24z" fill="#ffffff" id="svg_2"/>
   <path d="m2290,-460c-261,-25 -509,-71 -561,-105c-49,-32 -79,-84 -86,-147c-4,-45 -1,-61 24,-108c23,-44 39,-60 83,-83c63,-33 66,-33 290,6c630,111 1288,18 1850,-263c304,-151 530,-311 770,-545c167,-162 178,-170 262,-170c58,0 71,4 109,31c73,53 102,135 79,221c-11,42 -31,66 -149,183c-550,545 -1225,871 -1996,966c-153,18 -540,26 -675,14z" fill="#ffffff" id="svg_3"/>
   <path d="m2865,-1666c-132,-68 -153,-233 -42,-331c28,-25 57,-36 149,-57c410,-96 719,-263 1041,-563c85,-80 130,-99 207,-89c89,12 156,82 167,174c8,75 -20,128 -119,222c-340,320 -754,544 -1185,639c-111,25 -177,26 -218,5z" fill="#ffffff" id="svg_4"/>
   <path d="m2460,-4014c-119,-33 -205,-128 -231,-253c-47,-227 157,-431 383,-384c137,28 231,122 259,259c49,238 -174,443 -411,378z" fill="#ffffff" id="svg_5"/>
  </g>
 </g>
</svg>