<?xml version="1.0"?>
<svg width="512" height="512" xmlns="http://www.w3.org/2000/svg" xmlns:svg="http://www.w3.org/2000/svg" preserveAspectRatio="xMidYMid meet" version="1.0">
 <g class="layer">
  <title>Layer 1</title>
  <g fill="#000000" id="svg_1" transform="matrix(0.1 0 0 -0.1 0 0)">
   <path d="m3994,-454c-27,-13 -66,-42 -87,-66c-72,-85 -67,78 -67,-2040c0,-2118 -5,-1955 67,-2040c21,-24 60,-53 87,-66c50,-23 58,-24 326,-24c268,0 276,1 326,24c27,13 66,42 87,66c72,85 67,-78 67,2040c0,2118 5,1955 -67,2040c-21,24 -60,53 -87,66c-50,23 -58,24 -326,24c-268,0 -276,-1 -326,-24z" fill="#ffffff" id="svg_2"/>
   <path d="m2843,-1296c-60,-22 -126,-85 -152,-143l-21,-50l2,-1508c3,-1434 4,-1510 21,-1544c23,-47 79,-103 126,-126c32,-16 66,-18 331,-18l295,0l48,28c26,16 61,47 78,70c63,87 60,-2 57,1623l-3,1479l-21,45c-26,54 -74,104 -128,133c-39,21 -55,22 -316,24c-224,2 -283,-1 -317,-13z" fill="#ffffff" id="svg_3"/>
   <path d="m1688,-2144c-89,-24 -168,-107 -187,-197c-8,-34 -11,-384 -11,-1078c0,-1126 -2,-1084 59,-1169c17,-22 52,-53 78,-69l48,-28l295,0c329,0 332,1 403,72c78,77 72,-19 75,1181c1,721 -1,1087 -8,1113c-17,60 -69,120 -135,154l-59,30l-255,2c-184,2 -269,-1 -303,-11z" fill="#ffffff" id="svg_4"/>
   <path d="m474,-3014c-60,-28 -117,-91 -138,-154c-24,-68 -24,-1276 0,-1344c21,-63 78,-126 138,-154c50,-23 58,-24 326,-24c268,0 276,1 326,24c60,28 117,91 138,154c24,68 24,1276 0,1344c-21,63 -78,126 -138,154c-50,23 -58,24 -326,24c-268,0 -276,-1 -326,-24z" fill="#ffffff" id="svg_5"/>
  </g>
 </g>
</svg>